# Blender v2.78 (sub 0) OBJ File: ''
# www.blender.org
mtllib torus.mtl
o Torus
v 2.250082 0.942352 0.607055
v 1.875082 1.158858 0.607055
v 1.875082 0.725845 0.607055
v 0.375082 0.942352 -0.475477
v 0.562582 1.158858 -0.150718
v 0.562582 0.725845 -0.150718
v 0.375082 0.942352 1.689586
v 0.562582 1.158858 1.364827
v 0.562582 0.725845 1.364827
vn 0.3780 0.6547 -0.6547
vn -0.5000 0.0000 0.8660
vn 0.3780 -0.6547 -0.6547
vn -0.7559 0.6547 0.0000
vn 1.0000 0.0000 0.0000
vn -0.7559 -0.6547 0.0000
vn 0.3780 0.6547 0.6547
vn -0.5000 0.0000 -0.8660
vn 0.3780 -0.6547 0.6547
usemtl None
s off
f 1//1 4//1 5//1 2//1
f 2//2 5//2 6//2 3//2
f 1//3 3//3 6//3 4//3
f 4//4 7//4 8//4 5//4
f 5//5 8//5 9//5 6//5
f 6//6 9//6 7//6 4//6
f 7//7 1//7 2//7 8//7
f 8//8 2//8 3//8 9//8
f 9//9 3//9 1//9 7//9
